<svg version="1.1" id="Layer_1" xmlns="http://www.w3.org/2000/svg" xmlns:xlink="http://www.w3.org/1999/xlink" x="0px" y="0px"
	 width="100%" viewBox="0 0 79 79" enable-background="new 0 0 79 79" xml:space="preserve">
<path fill="#000000" opacity="1.000000" stroke="none" 
	d="
M42.000000,1.000000 
	C54.632366,1.000000 67.264732,1.000000 79.948547,1.000000 
	C79.948547,27.227646 79.948547,53.455410 79.948547,80.000000 
	C65.313957,80.000000 50.625637,80.000000 35.141907,79.661835 
	C35.176975,78.891174 35.962471,78.243698 36.844814,78.059082 
	C46.953964,75.943924 57.077847,73.899170 67.526512,71.759430 
	C70.384399,70.343742 72.913574,69.004272 76.221924,67.252144 
	C72.425880,64.190742 69.775146,62.053005 67.083954,59.605537 
	C67.064430,58.881317 67.085365,58.466827 67.071472,58.036499 
	C67.036629,58.020660 67.051834,58.095676 67.335907,57.973549 
	C69.176918,55.253113 70.525772,57.303226 71.948959,58.048492 
	C71.964706,58.052483 71.964935,58.084957 72.100838,58.419544 
	C74.205933,60.804436 75.713722,60.018864 75.886444,57.634659 
	C76.044373,55.454891 75.248375,53.206017 74.926422,50.587978 
	C74.932617,49.117474 74.885139,48.046589 74.740051,46.589687 
	C74.369019,43.799763 74.095604,41.395859 73.885956,38.578026 
	C73.577415,35.103855 73.205124,32.043610 72.900963,28.579920 
	C72.267204,25.117111 71.565315,22.057749 70.920624,18.615702 
	C69.990425,15.862273 69.003036,13.491529 67.716614,10.999256 
	C66.332397,10.248411 65.247208,9.619097 63.976868,8.644567 
	C56.569946,6.516298 49.348179,4.733244 41.964844,2.578804 
	C41.868851,1.804945 41.934425,1.402473 42.000000,1.000000 
z"/>
<path fill="#000000" opacity="1.000000" stroke="none" 
	d="
M12.000000,80.000000 
	C8.348513,80.000000 4.697025,80.000000 1.062675,80.000000 
	C1.062675,53.666595 1.062675,27.333235 1.062675,1.000000 
	C6.436598,1.000000 11.747846,1.000000 17.846226,1.315469 
	C17.802401,4.838417 16.971447,8.045897 16.059956,11.362418 
	C15.979421,11.471460 16.026442,11.738468 15.621296,11.844673 
	C3.566364,14.177592 3.487848,14.956978 4.006133,24.096973 
	C4.061877,25.080038 4.114850,26.063261 4.102250,27.499342 
	C4.742061,36.294720 5.448728,44.637161 6.089320,53.390152 
	C6.733525,57.527813 7.443806,61.254936 8.088518,65.379761 
	C9.069978,69.183556 10.117006,72.589630 11.090034,76.348251 
	C11.344022,77.800529 11.672011,78.900269 12.000000,80.000000 
z"/>
<path fill="#FEA7B6" opacity="1.000000" stroke="none" 
	d="
M12.468622,80.000000 
	C11.672011,78.900269 11.344022,77.800529 11.499372,76.349510 
	C16.818165,75.758331 21.420408,75.010902 24.673378,70.391541 
	C28.078079,70.585602 31.042709,70.757362 34.423546,71.017120 
	C43.910324,71.155380 52.981216,71.177490 62.051182,71.280830 
	C63.768604,71.300392 65.482353,71.642410 67.197800,71.835648 
	C57.077847,73.899170 46.953964,75.943924 36.844814,78.059082 
	C35.962471,78.243698 35.176975,78.891174 34.673248,79.661835 
	C27.645748,80.000000 20.291496,80.000000 12.468622,80.000000 
z"/>
<path fill="#FDB8CB" opacity="1.000000" stroke="none" 
	d="
M16.140491,11.253376 
	C16.971447,8.045897 17.802401,4.838417 18.316677,1.315469 
	C25.687576,1.000000 33.375153,1.000000 41.531364,1.000000 
	C41.934425,1.402473 41.868851,1.804945 41.700066,2.834885 
	C41.390255,5.177765 41.183659,6.893178 40.568214,8.704866 
	C38.774403,8.976395 37.389439,9.151649 35.582222,9.258936 
	C28.820141,9.878439 22.480316,10.565907 16.140491,11.253376 
z"/>
<path fill="#D11335" opacity="1.000000" stroke="none" 
	d="
M67.526512,71.759430 
	C65.482353,71.642410 63.768604,71.300392 62.051182,71.280830 
	C52.981216,71.177490 43.910324,71.155380 34.438015,70.657089 
	C36.638386,68.436714 39.068081,66.289131 41.888985,64.992928 
	C44.979652,63.572762 47.587074,62.249943 47.675934,58.358814 
	C59.171974,61.000511 63.318230,58.814400 68.314545,47.996574 
	C70.755653,47.658588 72.796661,47.317146 74.837669,46.975704 
	C74.885139,48.046589 74.932617,49.117474 74.682198,50.881310 
	C73.577850,53.744495 72.771393,55.914726 71.964935,58.084957 
	C71.964935,58.084957 71.964706,58.052483 71.945137,57.689014 
	C71.268394,56.181618 70.611229,55.037689 69.287720,52.733875 
	C68.196121,55.351608 67.623978,56.723640 67.051834,58.095676 
	C67.051834,58.095676 67.036629,58.020660 66.784676,58.061211 
	C66.209000,58.665516 65.885277,59.229267 65.561554,59.793018 
	C66.082512,59.833767 66.603462,59.874519 67.124420,59.915268 
	C69.775146,62.053005 72.425880,64.190742 76.221924,67.252144 
	C72.913574,69.004272 70.384399,70.343742 67.526512,71.759430 
z"/>
<path fill="#F02F5F" opacity="1.000000" stroke="none" 
	d="
M64.162025,8.989783 
	C65.247208,9.619097 66.332397,10.248411 67.655838,11.338741 
	C65.390762,13.544453 62.913322,15.327832 60.378067,17.024830 
	C56.519691,19.607471 52.621250,22.130260 48.374825,24.608780 
	C45.806900,23.399923 43.603977,22.260757 41.666519,21.258869 
	C40.487148,24.463284 39.446075,27.291935 38.103905,30.002945 
	C37.231388,29.597174 36.659966,29.309042 35.952438,28.789497 
	C35.522953,28.110201 35.229572,27.662319 34.684391,26.891453 
	C33.928837,26.371813 33.425087,26.175158 33.007782,25.654593 
	C33.274403,25.198442 33.454578,25.066202 34.008301,24.923880 
	C35.603336,23.927553 36.824829,22.941309 38.052555,21.592251 
	C40.074219,19.760420 41.995022,18.133850 44.124584,16.854872 
	C48.692043,14.111732 53.367252,11.547995 58.437416,8.876235 
	C60.638340,8.891042 62.400181,8.940413 64.162025,8.989783 
z"/>
<path fill="#E1214A" opacity="1.000000" stroke="none" 
	d="
M72.832825,28.983364 
	C73.205124,32.043610 73.577415,35.103855 73.505188,38.650715 
	C71.264114,39.457943 69.467575,39.778557 67.439575,39.856468 
	C63.508377,32.644047 63.520214,32.677834 56.373627,35.181751 
	C54.990314,35.666416 53.474407,35.772636 51.886871,35.859901 
	C51.156925,35.857346 50.559769,36.048321 49.575905,36.402954 
	C47.806168,36.526417 46.423138,36.486217 45.035828,36.152435 
	C45.033951,35.075443 45.036354,34.292042 45.439148,33.353100 
	C49.934525,32.143242 54.029510,31.088921 58.510303,30.029888 
	C60.900242,29.363413 62.985275,28.877134 64.889732,27.999161 
	C67.819206,26.648642 70.540665,25.735245 72.832825,28.983364 
z"/>
<path fill="#EC2D5A" opacity="1.000000" stroke="none" 
	d="
M48.739826,24.678471 
	C52.621250,22.130260 56.519691,19.607471 60.378067,17.024830 
	C62.913322,15.327832 65.390762,13.544453 67.954865,11.460272 
	C69.003036,13.491529 69.990425,15.862273 70.550720,18.630049 
	C64.397469,21.412945 58.671310,23.798807 52.611263,26.199436 
	C51.098190,25.702291 49.919006,25.190380 48.739826,24.678471 
z"/>
<path fill="#E92D58" opacity="1.000000" stroke="none" 
	d="
M52.945156,26.184669 
	C58.671310,23.798807 64.397469,21.412945 70.493523,19.012733 
	C71.565315,22.057749 72.267204,25.117111 72.900955,28.579920 
	C70.540665,25.735245 67.819206,26.648642 64.889732,27.999161 
	C62.985275,28.877134 60.900242,29.363413 58.413441,29.699669 
	C56.268898,28.310997 54.607025,27.247833 52.945156,26.184669 
z"/>
<path fill="#FEACC1" opacity="1.000000" stroke="none" 
	d="
M63.976868,8.644567 
	C62.400181,8.940413 60.638340,8.891042 58.058411,8.726193 
	C51.819237,8.610007 46.398148,8.609299 40.977058,8.608590 
	C41.183659,6.893178 41.390255,5.177765 41.861633,3.206272 
	C49.348179,4.733244 56.569946,6.516298 63.976868,8.644567 
z"/>
<path fill="#D82144" opacity="1.000000" stroke="none" 
	d="
M67.671021,40.099174 
	C69.467575,39.778557 71.264114,39.457943 73.441429,39.064640 
	C74.095604,41.395859 74.369019,43.799763 74.740051,46.589687 
	C72.796661,47.317146 70.755653,47.658588 68.235931,47.562012 
	C67.728485,44.782387 67.699753,42.440781 67.671021,40.099174 
z"/>
<path fill="#D82144" opacity="1.000000" stroke="none" 
	d="
M72.100838,58.419544 
	C72.771393,55.914726 73.577850,53.744495 74.628532,51.280930 
	C75.248375,53.206017 76.044373,55.454891 75.886444,57.634659 
	C75.713722,60.018864 74.205933,60.804436 72.100838,58.419544 
z"/>
<path fill="#D82144" opacity="1.000000" stroke="none" 
	d="
M67.335907,57.973549 
	C67.623978,56.723640 68.196121,55.351608 69.287720,52.733875 
	C70.611229,55.037689 71.268394,56.181618 71.929398,57.685020 
	C70.525772,57.303226 69.176918,55.253113 67.335907,57.973549 
z"/>
<path fill="#D82144" opacity="1.000000" stroke="none" 
	d="
M67.083954,59.605537 
	C66.603462,59.874519 66.082512,59.833767 65.561554,59.793018 
	C65.885277,59.229267 66.209000,58.665516 66.819519,58.077049 
	C67.085365,58.466827 67.064430,58.881317 67.083954,59.605537 
z"/>
<path fill="#FFAFBE" opacity="1.000000" stroke="none" 
	d="
M24.233311,70.369240 
	C21.420408,75.010902 16.818165,75.758331 11.573374,75.996964 
	C10.117006,72.589630 9.069978,69.183556 8.434128,65.212509 
	C11.691022,64.073143 14.536736,63.498749 17.569036,63.126106 
	C18.344204,64.030052 18.932783,64.732246 19.616245,65.606140 
	C19.711126,65.777840 20.027996,66.009209 20.055044,66.359787 
	C21.465832,67.929985 22.849571,69.149612 24.233311,70.369240 
z"/>
<path fill="#F83D6F" opacity="1.000000" stroke="none" 
	d="
M16.059956,11.362418 
	C22.480316,10.565907 28.820141,9.878439 35.512024,9.578449 
	C30.398455,15.446156 23.562563,17.930344 16.051296,18.562412 
	C16.020409,15.988052 16.023424,13.863260 16.026442,11.738468 
	C16.026442,11.738468 15.979421,11.471460 16.059956,11.362418 
z"/>
<path fill="#FE7FA1" opacity="1.000000" stroke="none" 
	d="
M15.621296,11.844673 
	C16.023424,13.863260 16.020409,15.988052 15.996531,18.800934 
	C15.975670,19.489023 15.887748,19.970415 15.518302,19.992840 
	C11.691697,21.895332 6.094894,21.002392 5.628877,27.108959 
	C4.948234,27.069910 4.558671,27.058161 4.169107,27.046410 
	C4.114850,26.063261 4.061877,25.080038 4.006133,24.096973 
	C3.487848,14.956978 3.566364,14.177592 15.621296,11.844673 
z"/>
<path fill="#FFB6C5" opacity="1.000000" stroke="none" 
	d="
M17.382450,62.924355 
	C14.536736,63.498749 11.691022,64.073143 8.499697,64.814804 
	C7.443806,61.254936 6.733525,57.527813 6.340848,53.156631 
	C8.452301,51.648232 10.246151,50.783897 12.253992,49.970966 
	C12.467984,50.022369 12.897203,50.120945 12.918783,50.496918 
	C14.421059,54.890045 15.901754,58.907200 17.382450,62.924355 
z"/>
<path fill="#FFC4D2" opacity="1.000000" stroke="none" 
	d="
M12.039999,49.919563 
	C10.246151,50.783897 8.452301,51.648232 6.406923,52.746086 
	C5.448728,44.637161 4.742061,36.294720 4.102250,27.499342 
	C4.558671,27.058161 4.948234,27.069910 5.639485,27.440243 
	C6.258431,28.857224 6.575687,29.915627 6.907722,31.366875 
	C7.621656,34.173836 8.320811,36.587948 9.036504,39.380562 
	C10.048694,43.145897 11.044346,46.532726 12.039999,49.919563 
z"/>
<path fill="#D71B3F" opacity="1.000000" stroke="none" 
	d="
M24.673380,70.391541 
	C22.849571,69.149612 21.465832,67.929985 20.451466,66.355141 
	C27.532646,63.105320 34.259705,60.244709 40.928131,57.253391 
	C41.478428,57.006542 41.630966,55.872986 42.265381,55.243767 
	C44.116634,56.321243 45.670826,57.306370 47.225014,58.291500 
	C47.587074,62.249943 44.979652,63.572762 41.888985,64.992928 
	C39.068081,66.289131 36.638386,68.436714 34.021805,70.569099 
	C31.042709,70.757362 28.078079,70.585602 24.673380,70.391541 
z"/>
<path fill="#F43768" opacity="1.000000" stroke="none" 
	d="
M15.887749,19.970415 
	C15.887748,19.970415 15.975670,19.489023 16.030436,19.250502 
	C23.562563,17.930344 30.398455,15.446156 35.934280,9.646416 
	C37.389439,9.151649 38.774403,8.976395 40.568214,8.704866 
	C46.398148,8.609299 51.819237,8.610007 57.619331,8.760757 
	C53.367252,11.547995 48.692043,14.111732 44.124584,16.854872 
	C41.995022,18.133850 40.074219,19.760420 37.776306,21.714350 
	C35.997334,22.406021 34.500854,22.612780 32.679543,22.911411 
	C30.933350,24.013327 29.511982,25.023369 27.701118,26.036373 
	C23.559092,27.025951 19.806559,28.012566 16.018942,28.741920 
	C15.950634,28.314789 15.917412,28.144915 15.909211,27.532187 
	C15.918737,24.716358 15.903243,22.343388 15.887749,19.970415 
z"/>
<path fill="#FEF7F8" opacity="1.000000" stroke="none" 
	d="
M47.675934,58.358814 
	C45.670826,57.306370 44.116634,56.321243 42.127827,54.951126 
	C40.283630,52.989632 38.874058,51.413120 37.346832,49.505943 
	C35.550137,47.094116 33.871086,45.012955 32.084042,42.600426 
	C30.303860,40.372978 28.631674,38.476894 26.061516,35.562611 
	C33.290260,35.899090 39.165184,36.172554 45.040104,36.446018 
	C46.423138,36.486217 47.806168,36.526417 49.828476,36.517143 
	C50.985054,36.329590 51.502357,36.191509 52.019661,36.053425 
	C53.474407,35.772636 54.990314,35.666416 56.373627,35.181751 
	C63.520214,32.677834 63.508377,32.644047 67.439568,39.856464 
	C67.699753,42.440781 67.728485,44.782387 67.835831,47.558559 
	C63.318230,58.814400 59.171974,61.000511 47.675934,58.358814 
z"/>
<path fill="#FEEFF2" opacity="1.000000" stroke="none" 
	d="
M52.611263,26.199436 
	C54.607025,27.247833 56.268898,28.310997 58.027630,29.704380 
	C54.029510,31.088921 49.934525,32.143242 45.006409,33.263401 
	C41.752354,32.877960 39.331432,32.426682 37.194534,31.844662 
	C37.787369,31.182808 38.096184,30.651697 38.405003,30.120586 
	C39.446075,27.291935 40.487148,24.463284 41.666519,21.258869 
	C43.603977,22.260757 45.806900,23.399923 48.374825,24.608780 
	C49.919006,25.190380 51.098190,25.702291 52.611263,26.199436 
z"/>
<path fill="#FDE2E9" opacity="1.000000" stroke="none" 
	d="
M28.090614,26.033411 
	C29.511982,25.023369 30.933350,24.013327 32.944481,23.081890 
	C33.567749,23.751650 33.601254,24.342804 33.634754,24.933960 
	C33.454578,25.066202 33.274403,25.198442 32.940689,25.937344 
	C33.503502,26.767483 34.219845,26.990961 34.936192,27.214439 
	C35.229572,27.662319 35.522953,28.110201 35.811600,29.076569 
	C35.317532,30.291866 34.828197,30.988676 33.980865,31.766041 
	C31.780981,31.493587 29.939093,31.140585 28.082481,30.390797 
	C28.075375,28.673813 28.082994,27.353611 28.090614,26.033411 
z"/>
<path fill="#F03B67" opacity="1.000000" stroke="none" 
	d="
M34.008301,24.923880 
	C33.601254,24.342804 33.567749,23.751650 33.269310,22.990015 
	C34.500854,22.612780 35.997334,22.406021 37.770065,22.077164 
	C36.824829,22.941309 35.603336,23.927553 34.008301,24.923880 
z"/>
<path fill="#E92D58" opacity="1.000000" stroke="none" 
	d="
M34.338860,31.685488 
	C34.828197,30.988676 35.317532,30.291866 35.947708,29.307983 
	C36.659966,29.309042 37.231388,29.597174 38.103905,30.002945 
	C38.096184,30.651697 37.787369,31.182808 36.763588,31.825447 
	C35.478699,31.853144 34.908779,31.769316 34.338860,31.685488 
z"/>
<path fill="#F03B67" opacity="1.000000" stroke="none" 
	d="
M34.684391,26.891453 
	C34.219845,26.990961 33.503502,26.767483 32.854244,26.261253 
	C33.425087,26.175158 33.928837,26.371813 34.684391,26.891453 
z"/>
<path fill="#EA2755" opacity="1.000000" stroke="none" 
	d="
M33.980865,31.766041 
	C34.908779,31.769316 35.478699,31.853144 36.479568,31.956186 
	C39.331432,32.426682 41.752354,32.877960 44.606010,33.418938 
	C45.036354,34.292042 45.033951,35.075443 45.035828,36.152435 
	C39.165184,36.172554 33.290260,35.899090 26.061516,35.562611 
	C28.631674,38.476894 30.303860,40.372978 31.713577,42.663486 
	C26.961439,44.703472 22.471769,46.349026 17.905952,47.593971 
	C17.490114,44.112305 17.150421,41.031246 16.855064,37.581879 
	C16.925350,36.471344 16.951302,35.729118 17.376999,34.985947 
	C21.216900,33.585869 24.657053,32.186726 28.097206,30.787582 
	C29.939093,31.140585 31.780981,31.493587 33.980865,31.766041 
z"/>
<path fill="#E92D58" opacity="1.000000" stroke="none" 
	d="
M51.886871,35.859901 
	C51.502357,36.191509 50.985054,36.329590 50.215179,36.353485 
	C50.559769,36.048321 51.156925,35.857346 51.886871,35.859901 
z"/>
<path fill="#DD1B43" opacity="1.000000" stroke="none" 
	d="
M37.464485,49.836609 
	C38.874058,51.413120 40.283630,52.989632 41.830765,54.858784 
	C41.630966,55.872986 41.478428,57.006542 40.928131,57.253391 
	C34.259705,60.244709 27.532646,63.105320 20.424416,66.004562 
	C20.027996,66.009209 19.711126,65.777840 19.739635,65.187683 
	C19.522638,62.399956 19.277132,60.202389 19.394037,57.947914 
	C25.659126,55.206207 31.561806,52.521408 37.464485,49.836609 
z"/>
<path fill="#F84A72" opacity="1.000000" stroke="none" 
	d="
M19.031628,58.004818 
	C19.277132,60.202389 19.522638,62.399956 19.644754,65.015976 
	C18.932783,64.732246 18.344204,64.030052 17.569036,63.126106 
	C15.901754,58.907200 14.421059,54.890045 13.185514,50.234924 
	C14.896743,49.382111 16.362818,49.167267 17.886280,49.375530 
	C18.306322,52.534035 18.668974,55.269424 19.031628,58.004818 
z"/>
<path fill="#FE7196" opacity="1.000000" stroke="none" 
	d="
M15.518303,19.992840 
	C15.903243,22.343388 15.918737,24.716358 15.562920,27.597773 
	C12.425385,29.062153 9.659164,30.018089 6.892943,30.974026 
	C6.575687,29.915627 6.258431,28.857224 5.930566,27.467541 
	C6.094894,21.002392 11.691697,21.895332 15.518303,19.992840 
z"/>
<path fill="#FC587F" opacity="1.000000" stroke="none" 
	d="
M17.828894,48.952419 
	C16.362818,49.167267 14.896743,49.382111 13.163935,49.858952 
	C12.897203,50.120945 12.467984,50.022369 12.253992,49.970963 
	C11.044346,46.532726 10.048694,43.145897 9.424475,39.317642 
	C12.134183,38.567543 14.472456,38.258865 16.810730,37.950188 
	C17.150421,41.031246 17.490114,44.112305 17.873898,47.834442 
	C17.917988,48.475525 17.828894,48.952419 17.828894,48.952419 
z"/>
<path fill="#FD658B" opacity="1.000000" stroke="none" 
	d="
M16.855064,37.581879 
	C14.472456,38.258865 12.134183,38.567543 9.407938,38.939140 
	C8.320811,36.587948 7.621656,34.173836 6.907722,31.366875 
	C9.659164,30.018089 12.425385,29.062153 15.537899,28.040628 
	C15.917412,28.144915 15.950634,28.314789 16.043177,29.120499 
	C16.394083,31.499853 16.685667,33.243370 16.977253,34.986889 
	C16.951302,35.729118 16.925350,36.471344 16.855064,37.581879 
z"/>
<path fill="#F03B67" opacity="1.000000" stroke="none" 
	d="
M17.376999,34.985947 
	C16.685667,33.243370 16.394083,31.499853 16.078262,29.377756 
	C19.806559,28.012566 23.559092,27.025951 27.701118,26.036373 
	C28.082994,27.353611 28.075375,28.673813 28.082481,30.390799 
	C24.657053,32.186726 21.216900,33.585869 17.376999,34.985947 
z"/>
<path fill="#E41F4A" opacity="1.000000" stroke="none" 
	d="
M17.886280,49.375530 
	C17.828894,48.952419 17.917988,48.475525 17.950043,48.235054 
	C22.471769,46.349026 26.961439,44.703472 31.821575,42.994850 
	C33.871086,45.012955 35.550137,47.094116 37.346832,49.505943 
	C31.561806,52.521408 25.659126,55.206207 19.394037,57.947914 
	C18.668974,55.269424 18.306322,52.534035 17.886280,49.375530 
z"/>
</svg>